<?xml version="1.0" encoding="UTF-8" standalone="no"?>
<!-- Created with Inkscape (http://www.inkscape.org/) -->

<svg
   width="485.25232mm"
   height="471.94089mm"
   viewBox="0 0 485.25232 471.94089"
   version="1.1"
   id="svg1"
   xml:space="preserve"
   xmlns="http://www.w3.org/2000/svg"
   xmlns:svg="http://www.w3.org/2000/svg"><defs
     id="defs1" /><g
     id="layer1"
     transform="translate(523.70728,140.94782)"><path
       style="fill:#000000"
       d="m -522.31822,330.85725 -1.38906,-0.08 v -80.28721 c 0,-44.15797 0.0845,-80.28721 0.18776,-80.28721 0.21017,0 0.56143,0.34377 27.45087,26.86517 20.60052,20.31855 31.85276,31.3911 38.57409,37.95809 l 4.16793,4.07223 -0.0669,45.91943 -0.0669,45.91944 h -33.73437 c -18.55391,0 -34.35945,-0.036 -35.12344,-0.08 z m 59.20052,-48.67865 v -39.10133 l -5.09323,-5.01372 c -2.80127,-2.75754 -11.04889,-10.90921 -18.32804,-18.11481 -15.2086,-15.05495 -25.88596,-25.54726 -26.86715,-26.40152 l -0.67905,-0.59121 0.0418,63.96353 c 0.023,35.17993 0.0607,64.05282 0.0837,64.16196 0.0231,0.10914 11.47196,0.19843 25.44196,0.19843 h 25.4 z m 141.36077,48.45099 c -0.41359,-0.20031 -4.61763,-4.18531 -9.34232,-8.85556 -13.78346,-13.62466 -45.50465,-44.93978 -53.70178,-53.01434 -4.14735,-4.08532 -12.18031,-12.00727 -17.85104,-17.60433 -10.90935,-10.76762 -25.00615,-24.67186 -39.43112,-38.89249 -4.80226,-4.73423 -15.51794,-15.27063 -23.81263,-23.41423 -14.37687,-14.11498 -20.4789,-20.13131 -44.31771,-43.69531 -5.74807,-5.68181 -11.13565,-10.96007 -11.9724,-11.72947 l -1.52135,-1.39892 V -4.4610902 -140.94713 l 35.52031,0.009 35.52031,0.009 45.77292,45.658449 c 25.1751,25.112138 61.99553,61.867253 81.82318,81.678029 l 36.05028,36.019595 75.86846,-75.845934 c 41.72766,-41.71526 76.58285,-76.502589 77.45598,-77.305159 l 1.5875,-1.45923 0.0668,50.56707 0.0668,50.567065 -51.6604,51.677254 c -28.41322,28.422489 -51.68831,51.766788 -51.72242,51.876228 -0.0341,0.10944 0.0298,0.31804 0.14212,0.46356 0.11228,0.14552 4.42636,4.4327 9.58684,9.52707 16.601,16.388315 38.05802,37.651763 55.08041,54.583503 9.12645,9.07785 16.72212,16.46232 16.87927,16.40993 0.15716,-0.0524 10.63822,-10.45186 23.29124,-23.10996 l 23.00549,-23.01472 0.005,-19.049993 c 0.003,-10.4775 0.002,-66.347574 -0.003,-124.155722 l -0.008,-105.105725 h 35.455147 35.45515 l 3.8e-4,137.5171802 3.8e-4,137.5171698 -34.45173,34.47428 -34.451727,34.47427 5.94561,5.88761 c 3.270077,3.23819 17.197007,17.01054 30.948727,30.60523 13.75171,13.59469 26.58221,26.31968 28.51221,28.27775 l 3.50909,3.56012 -0.0695,29.56492 c -0.0382,16.26071 -0.16647,29.66187 -0.28498,29.78036 -0.11851,0.11849 -8.59441,0.21769 -18.83534,0.22044 l -18.61986,0.005 -2.85714,-2.77812 c -3.36926,-3.27608 -45.166507,-44.57659 -58.235827,-57.54372 -13.24609,-13.14251 -18.08256,-17.86253 -18.30324,-17.86253 -0.10777,0 -10.71628,10.62633 -23.57446,23.61406 -12.85819,12.98774 -30.31521,30.57881 -38.79338,39.09127 l -15.41485,15.47721 -43.78081,0.0292 -43.7808,0.0292 z m 104.11569,-29.25955 c 29.44685,-29.6964 61.81249,-62.10973 62.01896,-62.11037 0.10005,-3.1e-4 4.08606,3.8392 8.85782,8.53225 35.0064,34.42909 45.95229,45.23308 59.222777,58.45507 l 15.08125,15.02613 12.10469,0.003 12.10468,0.003 V 298.287 275.29489 l -31.81614,-31.58511 c -17.49888,-17.37181 -33.583377,-33.3084 -35.743337,-35.41465 -2.15995,-2.10625 -4.1678,-4.16461 -4.46188,-4.57414 l -0.5347,-0.7446 36.278027,-36.30645 36.27803,-36.30645 V -0.52891061 -131.42213 h -25.78745 -25.78745 l 0.0276,121.245311 0.0276,121.245309 -28.016707,28.11712 -28.01672,28.11713 -16.05656,-15.9463 c -56.66369,-56.274578 -79.06902,-78.628578 -79.00352,-78.822568 0.0411,-0.12164 24.21458,-24.369745 53.71893,-53.884689 l 53.64428,-53.663535 -0.007,-37.289824 -0.007,-37.289824 -72.6352,72.694266 c -39.94935,39.9818468 -72.72591,72.694268 -72.83681,72.694268 -0.11089,0 -37.87696,-37.6174208 -83.92458,-83.594267 l -83.72296,-83.594267 -28.76764,-0.0141 -28.76765,-0.0141 7.8e-4,129.5947362 7.9e-4,129.5947338 5.35124,5.2854 c 2.94318,2.90697 13.31693,13.13957 23.05278,22.73911 9.73584,9.59954 18.72506,18.47021 19.97604,19.7126 1.25097,1.24239 8.88247,8.73751 16.95887,16.65581 8.07641,7.9183 19.26828,18.93518 24.87083,24.48194 5.60256,5.54677 12.43854,12.27962 15.19107,14.9619 2.75253,2.68228 6.74113,6.60383 8.86354,8.71456 2.12241,2.11073 6.13169,6.03979 8.90951,8.73125 2.77782,2.69146 17.34662,17.03793 32.3751,31.88106 15.0285,14.84312 30.37699,29.98755 34.10776,33.65428 l 6.78322,6.66679 40.17266,0.0139 40.17267,0.0139 z m -72.17439,-19.32532 c -6.03912,-6.00661 -19.61224,-19.47579 -30.1625,-29.93152 -10.55026,-10.45573 -24.18292,-23.96717 -30.29479,-30.02542 -6.11188,-6.05826 -19.86287,-19.6452 -30.55777,-30.1932 -22.45498,-22.14653 -45.66169,-45.14146 -66.87503,-66.26472 l -14.88281,-14.81961 V 22.744929 c 0,-54.711469 0.094,-88.031918 0.24816,-87.977126 0.2838,0.10086 11.01865,10.7091 41.03511,40.551148 21.1735,21.0504602 42.76457,42.471492 64.55005,64.041695 24.44592,24.204346 45.93639,45.512746 62.44166,61.912664 9.38609,9.32618 28.42968,28.20409 42.31908,41.95093 13.8894,13.74683 31.39158,31.07428 38.89375,38.50543 7.50216,7.43115 15.70183,15.5274 18.22149,17.99167 l 4.5812,4.48047 -10.79891,10.85287 c -35.1111,35.28655 -77.60405,77.91457 -77.6661,77.91299 -0.0398,-10e-4 -5.01348,-4.91635 -11.05259,-10.92295 z m 33.49368,-25.12468 c 24.51405,-24.61945 52.03637,-52.27695 52.20598,-52.46241 0.0588,-0.0643 -6.6682,-6.81043 -14.94896,-14.99135 -8.28075,-8.18091 -24.52139,-24.29802 -36.09029,-35.8158 -11.56891,-11.51777 -27.10656,-26.94075 -34.52812,-34.27328 -14.93251,-14.75336 -35.534,-35.169018 -60.85416,-60.305218 -9.16782,-9.101205 -22.7392,-22.55646 -30.15866,-29.900567 -7.41945,-7.344107 -22.24273,-22.0489012 -32.94062,-32.6773218 -15.13738,-15.0390802 -38.6614,-38.3726532 -39.28901,-38.9709372 -0.0502,-0.04785 -0.0406,33.5622348 0.0214,74.689089 l 0.11266,74.776095 13.55287,13.41715 c 7.45408,7.37944 20.28144,20.08923 28.50525,28.24399 35.1544,34.85919 73.49743,72.83703 84.80237,83.99464 20.19641,19.93323 40.82554,40.40705 44.04588,43.71428 1.6695,1.71455 3.05094,3.11737 3.06986,3.11737 0.0189,0 10.14103,-10.15008 22.49357,-22.55573 z"
       id="path1" /></g></svg>
